<svg fill="none" height="24" viewBox="0 0 24 24" width="24" xmlns="http://www.w3.org/2000/svg"><g clip-rule="evenodd" fill-rule="evenodd"><path d="m12 3.75c-1.6569 0-3 1.34315-3 3s1.3431 3 3 3 3-1.34315 3-3-1.3431-3-3-3zm-5 3c0-2.76142 2.23858-5 5-5 2.7614 0 5 2.23858 5 5s-2.2386 5-5 5c-2.76142 0-5-2.23858-5-5z" fill="#3747d6"/><path d="m4.08247 20.25h15.83503c-.5502-3.3156-3.793-6-7.9175-6-4.12446 0-7.36735 2.6844-7.91753 6zm-2.08247 1c0-5.078 4.59113-9 10-9 5.4089 0 10 3.922 10 9 0 .5523-.4477 1-1 1h-18c-.55228 0-1-.4477-1-1z" fill="#9545ed"/></g></svg>