<?xml version="1.0" encoding="UTF-8"?>
<svg id="Camada_2" data-name="Camada 2" xmlns="http://www.w3.org/2000/svg" xmlns:xlink="http://www.w3.org/1999/xlink" viewBox="0 0 682.43 101.63">
  <defs>
    <style>
      .cls-1 {
        fill: url(#Gradiente_sem_nome_12);
        stroke-width: 0px;
      }
    </style>
    <linearGradient id="Gradiente_sem_nome_12" data-name="Gradiente sem nome 12" x1="66.25" y1="14.76" x2="680.09" y2="105.7" gradientUnits="userSpaceOnUse">
      <stop offset="0" stop-color="#7d4eff"/>
      <stop offset=".16" stop-color="#7146ec"/>
      <stop offset=".49" stop-color="#5234bb"/>
      <stop offset=".94" stop-color="#21176d"/>
      <stop offset=".99" stop-color="#1b1464"/>
    </linearGradient>
  </defs>
  <g id="Camada_1-2" data-name="Camada 1">
    <path class="cls-1" d="M16.56.13c13.37,13.76,20.57,31.9,20.29,51.06s-8.02,37.07-21.78,50.44L0,86.12c9.62-9.34,15.03-21.86,15.23-35.25.2-13.39-4.84-26.06-14.18-35.68L16.56.13ZM109.72,15.32L94.46,0c-28.04,27.93-28.14,73.47-.21,101.51l15.32-15.26c-19.52-19.6-19.45-51.42.14-70.93ZM226.45,12.88V2.25h-19.32v46.84c-.02.57-.04,1.14-.04,1.72v45.07h19.35v-46.55c.68-14.17,11.19-24.28,26.88-24.28h24.15V5.75h-24.92c-10.09,0-18.95,2.56-26.1,7.13ZM282.76,95.89h19.32V29.42h-19.32v66.47ZM282.76,25.06h19.32V5.75h-19.32v19.32ZM307.75,25.06h19.32V5.75h-19.32v19.32ZM307.75,95.89h19.32V29.42h-19.32v66.47ZM421.93,5.75h-88.08v9.32c0,5.52,4.48,10,10,10h48.72l-58.72,51.51v19.32h88.08v-9.32c0-5.52-4.48-10-10-10h-48.59l58.59-51.51s0,0,0,0V5.75ZM638.65,5.75h-68.25c-26.27,0-43.78,16.74-43.78,41.72v48.42h19.32v-47.64c0-13.91,9.79-23.18,24.59-23.18h24.34v70.82h19.32V25.06h24.34c14.81,0,24.59,9.27,24.59,23.18v47.64h19.32v-48.42c0-24.98-17.51-41.72-43.78-41.72ZM472.82,77.86c-14.74,0-24.91-8.82-26.65-22.6h-19.42c1.81,25.49,19.71,41.92,46.07,41.92s44.44-16.48,46.31-41.92h-19.42c-1.79,13.82-12.07,22.6-26.89,22.6ZM473.08,23.78c13.89,0,23.71,7.93,26.26,20.39h19.59c-2.7-24.08-20.2-39.71-45.85-39.71s-43.32,15.59-46.09,39.71h19.6c2.6-12.49,12.52-20.39,26.49-20.39ZM153.79,77.86c-14.74,0-24.91-8.82-26.65-22.6h-19.42c1.81,25.49,19.71,41.92,46.07,41.92s44.44-16.48,46.31-41.92h-19.42c-1.79,13.82-12.07,22.6-26.89,22.6ZM127.55,44.17c2.6-12.49,12.52-20.39,26.49-20.39s23.71,7.93,26.26,20.39h19.59c-2.7-24.08-20.2-39.71-45.85-39.71s-43.32,15.59-46.09,39.71h19.6Z"/>
  </g>
</svg>