<svg clip-rule="evenodd" fill-rule="evenodd" height="512" image-rendering="optimizeQuality" shape-rendering="geometricPrecision" text-rendering="geometricPrecision" viewBox="0 0 71.9666 71.9666" width="512" xmlns="http://www.w3.org/2000/svg" xmlns:xlink="http://www.w3.org/1999/xlink"><linearGradient id="id0" gradientUnits="userSpaceOnUse" x1="35.983" x2="35.983" y1="71.967" y2="0"><stop offset="0" stop-color="#262261"/><stop offset=".0117647" stop-color="#262261"/><stop offset=".0196078" stop-color="#262261"/><stop offset=".0313725" stop-color="#262261"/><stop offset=".0392157" stop-color="#262261"/><stop offset=".0509804" stop-color="#262261"/><stop offset=".0588235" stop-color="#292363"/><stop offset=".0705882" stop-color="#2c2365"/><stop offset=".0784314" stop-color="#2f2468"/><stop offset=".0901961" stop-color="#32246a"/><stop offset=".101961" stop-color="#35256c"/><stop offset=".109804" stop-color="#37256e"/><stop offset=".121569" stop-color="#3a2670"/><stop offset=".129412" stop-color="#3d2672"/><stop offset=".141176" stop-color="#3f2774"/><stop offset=".14902" stop-color="#422776"/><stop offset=".160784" stop-color="#442777"/><stop offset=".168627" stop-color="#462879"/><stop offset=".180392" stop-color="#48287a"/><stop offset=".188235" stop-color="#4a287c"/><stop offset=".2" stop-color="#4c297d"/><stop offset=".211765" stop-color="#4e297f"/><stop offset=".219608" stop-color="#502980"/><stop offset=".231373" stop-color="#512981"/><stop offset=".239216" stop-color="#532a83"/><stop offset=".25098" stop-color="#552a84"/><stop offset=".258824" stop-color="#562a85"/><stop offset=".270588" stop-color="#582a86"/><stop offset=".278431" stop-color="#592b87"/><stop offset=".290196" stop-color="#5a2b88"/><stop offset=".301961" stop-color="#5b2b89"/><stop offset=".309804" stop-color="#5c2b8a"/><stop offset=".321569" stop-color="#5e2b8a"/><stop offset=".329412" stop-color="#5f2c8b"/><stop offset=".341176" stop-color="#602c8c"/><stop offset=".34902" stop-color="#612c8d"/><stop offset=".360784" stop-color="#612c8d"/><stop offset=".368627" stop-color="#622c8e"/><stop offset=".380392" stop-color="#622c8e"/><stop offset=".388235" stop-color="#632c8e"/><stop offset=".4" stop-color="#632d8f"/><stop offset=".411765" stop-color="#632d8f"/><stop offset=".419608" stop-color="#642d8f"/><stop offset=".431373" stop-color="#642d8f"/><stop offset=".439216" stop-color="#652d90"/><stop offset=".45098" stop-color="#652d90"/><stop offset=".458824" stop-color="#672d90"/><stop offset=".470588" stop-color="#682d90"/><stop offset=".478431" stop-color="#6a2c90"/><stop offset=".490196" stop-color="#6b2c90"/><stop offset=".501961" stop-color="#6d2c90"/><stop offset=".509804" stop-color="#6e2c90"/><stop offset=".521569" stop-color="#702c90"/><stop offset=".529412" stop-color="#712b90"/><stop offset=".541176" stop-color="#722b90"/><stop offset=".54902" stop-color="#732b90"/><stop offset=".560784" stop-color="#752b90"/><stop offset=".568627" stop-color="#762b90"/><stop offset=".580392" stop-color="#772a8f"/><stop offset=".588235" stop-color="#782a8f"/><stop offset=".6" stop-color="#792a8f"/><stop offset=".611765" stop-color="#7a2a8f"/><stop offset=".619608" stop-color="#7c2a8f"/><stop offset=".631373" stop-color="#7d2a8f"/><stop offset=".639216" stop-color="#7e298f"/><stop offset=".65098" stop-color="#7f298f"/><stop offset=".658824" stop-color="#80298f"/><stop offset=".670588" stop-color="#81298f"/><stop offset=".678431" stop-color="#82298f"/><stop offset=".690196" stop-color="#82298f"/><stop offset=".701961" stop-color="#83298f"/><stop offset=".709804" stop-color="#84298f"/><stop offset=".721569" stop-color="#85298f"/><stop offset=".729412" stop-color="#85298f"/><stop offset=".741176" stop-color="#86288e"/><stop offset=".74902" stop-color="#87288e"/><stop offset=".760784" stop-color="#87288e"/><stop offset=".768627" stop-color="#88288e"/><stop offset=".780392" stop-color="#89288e"/><stop offset=".788235" stop-color="#89288e"/><stop offset=".8" stop-color="#8a288e"/><stop offset=".811765" stop-color="#8b288e"/><stop offset=".819608" stop-color="#8b288e"/><stop offset=".831373" stop-color="#8c288e"/><stop offset=".839216" stop-color="#8c288e"/><stop offset=".85098" stop-color="#8d288e"/><stop offset=".858824" stop-color="#8d288e"/><stop offset=".870588" stop-color="#8d288e"/><stop offset=".878431" stop-color="#8d288e"/><stop offset=".890196" stop-color="#8e288e"/><stop offset=".901961" stop-color="#8e288e"/><stop offset=".909804" stop-color="#8e278e"/><stop offset=".921569" stop-color="#8e278e"/><stop offset=".929412" stop-color="#8e278e"/><stop offset=".941176" stop-color="#8f278e"/><stop offset=".94902" stop-color="#8f278e"/><stop offset=".960784" stop-color="#8f278e"/><stop offset=".968627" stop-color="#8f278e"/><stop offset=".980392" stop-color="#90278e"/><stop offset=".988235" stop-color="#90278e"/><stop offset="1" stop-color="#90278e"/></linearGradient><g id="Layer_x0020_1"><path d="m71.9665 35.9833c0-19.8731-16.1102-35.9833-35.9833-35.9833s-35.9833 16.1102-35.9833 35.9833 16.1102 35.9833 35.9833 35.9833 35.9833-16.1102 35.9833-35.9833z" fill="url(#id0)"/><g id="_326579416"><g><path id="_394053096" d="m35.9834 57.669c-11.9536 0-21.6857-9.7322-21.6857-21.6857s9.7321-21.6857 21.6857-21.6857 21.6856 9.7321 21.6856 21.6856-9.7321 21.6858-21.6856 21.6858zm0-42.1373c-11.2836 0-20.4515 9.1679-20.4515 20.4515s9.1679 20.4515 20.4515 20.4515 20.4515-9.1679 20.4515-20.4515-9.1679-20.4515-20.4515-20.4515z" fill="#fff"/></g><g><path id="_394052856" d="m22.6193 52.9087c-.1763 0-.3526-.0705-.4936-.2115-.2116-.2821-.1764-.67.1057-.8816 1.481-1.1988 2.821-1.622 4.0903-2.0099 1.0226-.3173 1.9746-.5994 2.9972-1.3047 1.8335-1.2694 1.7631-3.9493.7405-5.8886-.3526-.6347-.7052-1.4456-.952-2.0804-.1058-.2821-.2822-.6347-.3526-.7757-2.9619-1.7631-1.9042-4.4077-1.5516-5.2539 0-.0353.0353-.0705.0353-.1058-.952-3.6319-.9873-6.065-.1057-7.4049.0704-.1057.1057-.141.1057-.1763 0 0 0 0 0-.0353 0-.1058 0-.2115 0-.3879.2468-2.433 1.7278-4.6545 3.2793-4.9013.6347-.1058 1.2342.1058 1.6926.6347 2.8562-2.3272 6.1707-2.5388 8.9211-.5642 3.2793 2.3625 5.4655 7.7927 3.103 13.3287 0 .0353.0353.0353.0353.0705.2821.5643.9168 1.9042-.2116 3.3146-.3173.4232-.5642.5994-.7404.7052-.0353.0353-.0705.0353-.0705.0705 0 0-.0353.141-.1058.5994-.1411 1.1988-.5642 2.2214-1.3752 3.1736-1.0579 1.2694-1.3047 4.3018-.1057 5.536 1.5515 1.6926 2.8914 1.7983 4.3018 1.9041 1.3048.1058 2.6094.2115 3.9494 1.5162.2468.2469.2468.6348 0 .8816-.2469.2468-.6348.2468-.8816 0-.9873-.9873-1.9394-1.0931-3.1382-1.1637-1.5163-.1057-3.2088-.2468-5.1129-2.292-1.6573-1.763-1.3399-5.5007.0705-7.1933.8462-1.0226 1.0579-1.9394 1.0931-2.5388.1057-.9169.2468-1.1989.7052-1.5163.1057-.0705.2468-.1763.4583-.4583.5994-.7405.3526-1.3752.0705-2.0099-.1058-.2469-.2115-.4937-.1764-.7405 0-.0353.0353-.1058.0353-.1411 2.151-4.7955.3526-9.9084-2.6093-12.024-2.4682-1.7631-5.3245-1.4105-7.8985.9168-.141.1411-.3526.1763-.5289.1411-.1764-.0353-.3526-.1764-.4232-.3526-.3173-.67-.67-.6348-.7758-.5995-.811.1411-2.0803 1.6573-2.292 3.8083v.2821c0 .3526-.0704.4937-.3173.8815-.6347.9873-.5289 3.2793.3173 6.5587v.0352c.0353.2116-.0353.3879-.141.67-.529 1.3399-.7758 2.7151 1.1636 3.8083.0705.0353.1058.0705.1764.141.141.1411.2468.4232.5642 1.1637.2468.5994.5994 1.3752.9168 1.9746 1.3047 2.4682 1.3047 5.8181-1.1283 7.5106-1.1637.8111-2.2567 1.1284-3.3498 1.481-1.2341.3879-2.3625.7405-3.6672 1.7983-.1412.0351-.2822.1057-.4233.1057z" fill="#fff"/></g><g><path id="_394053168" d="m41.343 35.7365c-.141 0-.2821-.0353-.3878-.1411-.2821-.2115-.3173-.5994-.1058-.8815.3526-.4232.2115-.7758 0-1.1988-.1058-.1764-.1763-.3879-.1411-.5995 0-.0704.0353-.1057.0353-.1763.8816-1.9746.8816-4.1961-.0704-6.065-.7052-1.4104-1.8336-2.3977-3.0678-2.6799-.3173-.0704-.529-.4231-.4584-.7404s.4232-.529.7405-.4584c1.622.3879 3.0325 1.5867 3.914 3.3498 1.0579 2.1157 1.1284 4.6192.1764 6.8759.2115.4232.67 1.4105-.1411 2.4683-.1412.1763-.3174.2469-.4938.2469z" fill="#fff"/></g></g></g></svg>