<svg id="Layer_1" enable-background="new 0 0 24 24" viewBox="0 0 24 24" xmlns="http://www.w3.org/2000/svg"><g><path d="m12 1v22c6.1 0 11-4.9 11-11s-4.9-11-11-11z" fill="#ead7f9"/><g fill="#9500d5"><path d="m12 .3c-6.5 0-11.7 5.2-11.7 11.7s5.2 11.8 11.7 11.8 11.8-5.3 11.8-11.8-5.3-11.7-11.8-11.7zm0 22c-5.7 0-10.2-4.6-10.2-10.3s4.5-10.2 10.2-10.2 10.3 4.5 10.3 10.2-4.6 10.3-10.3 10.3z"/><path d="m14.7 11.8c.7-.7 1.1-1.6 1.1-2.7 0-2.1-1.7-3.8-3.8-3.8s-3.8 1.7-3.8 3.8c0 1 .4 2 1.1 2.7-2.5.7-4.1 2.3-4.1 4.2 0 1.3 1.9 1.8 2.5 1.9 1.2.3 2.7.4 4.4.4 2.1 0 6.8-.2 6.8-2.3 0-1.9-1.7-3.5-4.2-4.2zm-2.7-5c1.3 0 2.3 1 2.3 2.3s-1 2.3-2.3 2.3-2.3-1-2.3-2.3 1-2.3 2.3-2.3zm0 10c-3.4 0-5.2-.6-5.4-.8 0-1.6 2.5-3 5.3-3 2.9 0 5.3 1.4 5.3 3-.2.2-1.9.8-5.2.8z"/></g></g></svg>